<?xml version="1.0" encoding="utf-8" standalone="yes"?>
<!DOCTYPE svg PUBLIC "-//W3C//DTD SVG 1.1//EN" "http://www.w3.org/Graphics/SVG/1.1/DTD/svg11.dtd">
<svg style="fill:none;stroke:none;fill-rule:evenodd;clip-rule:evenodd;stroke-linecap:round;stroke-linejoin:round;stroke-miterlimit:1.5;" version="1.1" xmlns="http://www.w3.org/2000/svg" xmlns:xlink="http://www.w3.org/1999/xlink" width="570" height="990" viewBox="0 0 570 990"><style class="text-font-style fontImports" data-font-family="Roboto">@import url(https://fonts.googleapis.com/css2?family=Roboto:wght@400;700&amp;amp;display=block);</style><g id="items" style="isolation: isolate"><g id="blend" style="mix-blend-mode: normal"><g id="g-root-cp_-1_vectors_5usktjs7dor-fill" data-item-order="-466656" transform="translate(38, 182)"><g id="cp_-1_vectors_5usktjs7dor-fill-merged" stroke="none" fill="#969696" fill-opacity="1"><g><path d="M112 52 V569 H124 V52C124 28.804 105.196 10 82 10C58.804 10 40 28.804 40 52 V569.513C21.831 582.583 10 603.91 10 628C10 667.765 42.236 700 82 700C121.765 700 154 667.765 154 628C154 603.91 142.169 582.583 124 569.513 V569 H112 V576.027C129.934 586.401 142 605.792 142 628C142 661.137 115.137 688 82 688C48.863 688 22 661.137 22 628C22 605.792 34.066 586.401 52 576.027 V52C52 35.431 65.432 22 82 22C98.568 22 112 35.431 112 52"></path></g></g></g><g id="g-root-cp_6_vectors-6_5usktjs7dos-fill" data-item-order="-466634" transform="translate(80, 194)"><g id="cp_6_vectors-6_5usktjs7dos-fill-merged" stroke="none" fill="#7f64ea" fill-opacity="1"><g><path d="M10 40C10 23.431 23.431 10 40 10C56.569 10 70 23.431 70 40 V124 H10 V40"></path></g></g></g><g id="g-root-cp_5_vectors_1_1ur5cfhjs7e9x-fill" data-item-order="-466606" transform="translate(80, 308)"><g id="cp_5_vectors_1_1ur5cfhjs7e9x-fill-merged" stroke="none" fill="#ba5de5" fill-opacity="1"><g><path d="M10 10 H70 V118 H10 V10"></path></g></g></g><g id="g-root-cp_4_vectors_2_1ur5cfhjs7e9y-fill" data-item-order="-466586" transform="translate(80, 416)"><g id="cp_4_vectors_2_1ur5cfhjs7e9y-fill-merged" stroke="none" fill="#de58a9" fill-opacity="1"><g><path d="M10 10 H70 V118 H10 V10"></path></g></g></g><g id="g-root-cp_3_vectors_3_1ur5cfhjs7e9z-fill" data-item-order="-466566" transform="translate(80, 524)"><g id="cp_3_vectors_3_1ur5cfhjs7e9z-fill-merged" stroke="none" fill="#e55753" fill-opacity="1"><g><path d="M10 10 H70 V106 H10 V10"></path></g></g></g><g id="g-root-cp_2_vectors_4_1qbybe5js7bwg-fill" data-item-order="-466546" transform="translate(80, 620)"><g id="cp_2_vectors_4_1qbybe5js7bwg-fill-merged" stroke="none" fill="#de8431" fill-opacity="1"><g><path d="M10 10 H70 V118 H10 V10"></path></g></g></g><g id="g-root-cp_1_vectors_5_1qbybe5js7bwh-fill" data-item-order="-466526" transform="translate(50, 728)"><g id="cp_1_vectors_5_1qbybe5js7bwh-fill-merged" stroke="none" fill="#e0cb15" fill-opacity="1"><g><path d="M100 10 H40 V30.027C22.066 40.401 10 59.792 10 82C10 115.137 36.863 142 70 142C103.137 142 130 115.137 130 82C130 59.792 117.934 40.401 100 30.027 V10"></path></g></g></g><g id="g-root-tx_generate_144usrxjs7ea5-fill" data-item-order="0" transform="translate(194, 254)"><g id="tx_generate_144usrxjs7ea5-fill-merged" stroke="none" fill="#484848" fill-opacity="1"><g><text style="font: 15px Roboto, sans-serif; white-space: pre;" transform="translate(10, 28)" font-size="15px" font-family="Roboto, sans-serif"><tspan x="2" y="0" dominant-baseline="ideographic">Generates new ideas and designs </tspan><tspan x="2" y="18" dominant-baseline="ideographic">solutions</tspan></text></g></g></g><g id="g-root-ic_bull_qp0ystjsa77r-fill" data-item-order="0" transform="translate(86, 338)"></g><g id="g-root-tx_evaluati_6h9nxjsa58q-fill" data-item-order="0" transform="translate(194, 326)"><g id="tx_evaluati_6h9nxjsa58q-fill-merged" stroke="none" fill="#ba5de5" fill-opacity="1"><g><text style="font: bold 20px Roboto, sans-serif; white-space: pre;" transform="translate(10, 22)" font-weight="bold" font-size="20px" font-family="Roboto, sans-serif"><tspan x="2" y="12" dominant-baseline="ideographic">Evaluation</tspan></text></g></g></g><g id="g-root-tx_provides_1urrtiljsa5tv-fill" data-item-order="0" transform="translate(194, 362)"><g id="tx_provides_1urrtiljsa5tv-fill-merged" stroke="none" fill="#484848" fill-opacity="1"><g><text style="font: 15px Roboto, sans-serif; white-space: pre;" transform="translate(10, 28)" font-size="15px" font-family="Roboto, sans-serif"><tspan x="2" y="0" dominant-baseline="ideographic">Provides feedback, identifies areas for </tspan><tspan x="2" y="18" dominant-baseline="ideographic">improvement</tspan></text></g></g></g><g id="g-root-tx_creation_1d0ht0tjs7dhg-fill" data-item-order="0" transform="translate(194, 218)"><g id="tx_creation_1d0ht0tjs7dhg-fill-merged" stroke="none" fill="#7f64ea" fill-opacity="1"><g><text style="font: bold 20px Roboto, sans-serif; white-space: pre;" transform="translate(10, 22)" font-weight="bold" font-size="20px" font-family="Roboto, sans-serif"><tspan x="2" y="12" dominant-baseline="ideographic">Creation</tspan></text></g></g></g><g id="g-root-ic_view_1lw4t9pjsa6mk-fill" data-item-order="0" transform="translate(86, 446)"></g><g id="g-root-tx_analysis_1cw4kktjrp2pz-fill" data-item-order="0" transform="translate(194, 434)"><g id="tx_analysis_1cw4kktjrp2pz-fill-merged" stroke="none" fill="#de58a9" fill-opacity="1"><g><text style="font: bold 20px Roboto, sans-serif; white-space: pre;" transform="translate(10, 22)" font-weight="bold" font-size="20px" font-family="Roboto, sans-serif"><tspan x="2" y="12" dominant-baseline="ideographic">Analysis</tspan></text></g></g></g><g id="g-root-tx_analyzes_18gb2gdjrp3i8-fill" data-item-order="0" transform="translate(194, 470)"><g id="tx_analyzes_18gb2gdjrp3i8-fill-merged" stroke="none" fill="#484848" fill-opacity="1"><g><text style="font: 15px Roboto, sans-serif; white-space: pre;" transform="translate(10, 28)" font-size="15px" font-family="Roboto, sans-serif"><tspan x="2" y="0" dominant-baseline="ideographic">Analyzes documents, identifies patterns, </tspan><tspan x="2" y="18" dominant-baseline="ideographic">draws conclusions</tspan></text></g></g></g><g id="g-root-ic_1_144usrxjs7ea6-fill" data-item-order="0" transform="translate(86, 230)"></g><g id="g-root-ic_puzz_zko27hjrp4ax-fill" data-item-order="0" transform="translate(86, 548)"></g><g id="g-root-tx_applicat_1lw4wfhjrp5ai-fill" data-item-order="0" transform="translate(194, 542)"><g id="tx_applicat_1lw4wfhjrp5ai-fill-merged" stroke="none" fill="#e55753" fill-opacity="1"><g><text style="font: bold 20px Roboto, sans-serif; white-space: pre;" transform="translate(10, 22)" font-weight="bold" font-size="20px" font-family="Roboto, sans-serif"><tspan x="2" y="12" dominant-baseline="ideographic">Application</tspan></text></g></g></g><g id="g-root-tx_appliesk_1hgxve5jrp2wz-fill" data-item-order="0" transform="translate(194, 578)"><g id="tx_appliesk_1hgxve5jrp2wz-fill-merged" stroke="none" fill="#484848" fill-opacity="1"><g><text style="font: 15px Roboto, sans-serif; white-space: pre;" transform="translate(10, 22)" font-size="15px" font-family="Roboto, sans-serif"><tspan x="2" y="9" dominant-baseline="ideographic">Applies knowledge in real-world scenarios</tspan></text></g></g></g><g id="g-root-tx_higheror_1d0ht0tjs7dhf-fill" data-item-order="0" transform="translate(62, 146)"><g id="tx_higheror_1d0ht0tjs7dhf-fill-merged" stroke="none" fill="#484848" fill-opacity="1"><g><text style="font: 15px Roboto, sans-serif; white-space: pre;" transform="translate(58, 22)" font-size="15px" font-family="Roboto, sans-serif"><tspan x="-42.28" y="9" dominant-baseline="ideographic">Higher Order</tspan></text></g></g></g><g id="g-root-ic_1_18lav59jrp3po-fill" data-item-order="0" transform="translate(86, 650)"></g><g id="g-root-tx_comprehe_4pf8dpjrqih3-fill" data-item-order="0" transform="translate(194, 638)"><g id="tx_comprehe_4pf8dpjrqih3-fill-merged" stroke="none" fill="#de8431" fill-opacity="1"><g><text style="font: bold 20px Roboto, sans-serif; white-space: pre;" transform="translate(10, 22)" font-weight="bold" font-size="20px" font-family="Roboto, sans-serif"><tspan x="2" y="12" dominant-baseline="ideographic">Comprehension</tspan></text></g></g></g><g id="g-root-tx_explains_9lq99jrqj9c-fill" data-item-order="0" transform="translate(194, 674)"><g id="tx_explains_9lq99jrqj9c-fill-merged" stroke="none" fill="#484848" fill-opacity="1"><g><text style="font: 15px Roboto, sans-serif; white-space: pre;" transform="translate(10, 28)" font-size="15px" font-family="Roboto, sans-serif"><tspan x="2" y="0" dominant-baseline="ideographic">Explains complex concepts and answers </tspan><tspan x="2" y="18" dominant-baseline="ideographic">questions</tspan></text></g></g></g><g id="g-root-tx_aisrolei_1hgbb59js7cp6-fill" data-item-order="0" transform="translate(17, 38)"><g id="tx_aisrolei_1hgbb59js7cp6-fill-merged" stroke="none" fill="#484848" fill-opacity="1"><g><text style="font: bold 25px Roboto, sans-serif; white-space: pre;" transform="translate(268, 40)" font-weight="bold" font-size="25px" font-family="Roboto, sans-serif"><tspan x="-250.77" y="-1" dominant-baseline="ideographic">AI's role in education: From memorization to </tspan><tspan x="-49.13" y="29" dominant-baseline="ideographic">creation</tspan></text></g></g></g><g id="g-root-tx_lowerord_v3llwtjrrw1z-fill" data-item-order="0" transform="translate(62, 884)"><g id="tx_lowerord_v3llwtjrrw1z-fill-merged" stroke="none" fill="#484848" fill-opacity="1"><g><text style="font: 15px Roboto, sans-serif; white-space: pre;" transform="translate(58, 22)" font-size="15px" font-family="Roboto, sans-serif"><tspan x="-40.72" y="9" dominant-baseline="ideographic">Lower Order</tspan></text></g></g></g><g id="g-root-tx_memoriza_zismy5jrryfh-fill" data-item-order="0" transform="translate(194, 746)"><g id="tx_memoriza_zismy5jrryfh-fill-merged" stroke="none" fill="#e0cb15" fill-opacity="1"><g><text style="font: bold 20px Roboto, sans-serif; white-space: pre;" transform="translate(10, 22)" font-weight="bold" font-size="20px" font-family="Roboto, sans-serif"><tspan x="2" y="12" dominant-baseline="ideographic">Memorization</tspan></text></g></g></g><g id="g-root-tx_reinforc_v3llwtjrrw1y-fill" data-item-order="0" transform="translate(194, 782)"><g id="tx_reinforc_v3llwtjrrw1y-fill-merged" stroke="none" fill="#484848" fill-opacity="1"><g><text style="font: 15px Roboto, sans-serif; white-space: pre;" transform="translate(10, 22)" font-size="15px" font-family="Roboto, sans-serif"><tspan x="2" y="9" dominant-baseline="ideographic">Reinforces knowledge through practice</tspan></text></g></g></g><g id="g-root-ic_1_1qf2rzhjrqjuy-fill" data-item-order="0" transform="translate(80, 770)"></g><g id="g-root-cp_-1_vectors_5usktjs7dor-stroke" data-item-order="-466656" transform="translate(38, 182)"><g id="cp_-1_vectors_5usktjs7dor-stroke" fill="none" stroke-linecap="round" stroke-linejoin="round" stroke-miterlimit="4" stroke="#ffffff" stroke-width="2" stroke-opacity="1"><g><path d="M 40 52L 40 569M 124 52L 124 569M 124 52C 124 28.804 105.196 10 82 10C 58.804 10 40 28.804 40 52M 40 569L 40 569.5126C 21.8312 582.5827 10 603.9097 10 628C 10 667.7645 42.2355 700 82 700C 121.7645 700 154 667.7645 154 628C 154 603.9097 142.1688 582.5827 124 569.5126L 124 569"></path></g></g></g><g id="g-root-cp_6_vectors-6_5usktjs7dos-stroke" data-item-order="-466634" transform="translate(80, 194)"><g id="cp_6_vectors-6_5usktjs7dos-stroke" fill="none" stroke-linecap="round" stroke-linejoin="round" stroke-miterlimit="4" stroke="#ffffff" stroke-width="2" stroke-opacity="1"><g><path d="M 10 39.999998L 10 123.999992L 70 123.999992L 70 39.999998M 70 40C 70 23.4315 56.5685 10 40 10C 23.4315 10 10 23.4315 10 40"></path></g></g></g><g id="g-root-cp_5_vectors_1_1ur5cfhjs7e9x-stroke" data-item-order="-466606" transform="translate(80, 308)"><g id="cp_5_vectors_1_1ur5cfhjs7e9x-stroke" fill="none" stroke-linecap="round" stroke-linejoin="round" stroke-miterlimit="4" stroke="#ffffff" stroke-width="2" stroke-opacity="1"><g><path d="M 10 10L 70 10L 70 118L 10 118Z"></path></g></g></g><g id="g-root-cp_4_vectors_2_1ur5cfhjs7e9y-stroke" data-item-order="-466586" transform="translate(80, 416)"><g id="cp_4_vectors_2_1ur5cfhjs7e9y-stroke" fill="none" stroke-linecap="round" stroke-linejoin="round" stroke-miterlimit="4" stroke="#ffffff" stroke-width="2" stroke-opacity="1"><g><path d="M 10 10L 70 10L 70 118L 10 118Z"></path></g></g></g><g id="g-root-cp_3_vectors_3_1ur5cfhjs7e9z-stroke" data-item-order="-466566" transform="translate(80, 524)"><g id="cp_3_vectors_3_1ur5cfhjs7e9z-stroke" fill="none" stroke-linecap="round" stroke-linejoin="round" stroke-miterlimit="4" stroke="#ffffff" stroke-width="2" stroke-opacity="1"><g><path d="M 10 10L 70 10L 70 106L 10 106Z"></path></g></g></g><g id="g-root-cp_2_vectors_4_1qbybe5js7bwg-stroke" data-item-order="-466546" transform="translate(80, 620)"><g id="cp_2_vectors_4_1qbybe5js7bwg-stroke" fill="none" stroke-linecap="round" stroke-linejoin="round" stroke-miterlimit="4" stroke="#ffffff" stroke-width="2" stroke-opacity="1"><g><path d="M 10 10L 70 10L 70 118L 10 118Z"></path></g></g></g><g id="g-root-cp_1_vectors_5_1qbybe5js7bwh-stroke" data-item-order="-466526" transform="translate(50, 728)"><g id="cp_1_vectors_5_1qbybe5js7bwh-stroke" fill="none" stroke-linecap="round" stroke-linejoin="round" stroke-miterlimit="4" stroke="#ffffff" stroke-width="2" stroke-opacity="1"><g><path d="M 100 22L 100 30.0269C 117.934 40.4012 130 59.7915 130 82C 130 115.1371 103.1371 142 70 142C 36.8629 142 10 115.1371 10 82C 10 59.7915 22.066 40.4012 40 30.0269L 40 22M 100 22L 100 10L 40 10L 40 22"></path></g></g></g><g id="g-root-tx_generate_144usrxjs7ea5-stroke" data-item-order="0" transform="translate(194, 254)"></g><g id="g-root-ic_bull_qp0ystjsa77r-stroke" data-item-order="0" transform="translate(86, 338)"><g id="ic_bull_qp0ystjsa77r-stroke" fill="none" stroke-linecap="round" stroke-linejoin="round" stroke-miterlimit="4" stroke="#ffffff" stroke-width="2" stroke-opacity="1"><g><path d="M 13 10.996L 55 10.996C 55 10.996 57 10.996 57 12.996L 57 54.995998C 57 54.995998 57 56.995998 55 56.995998L 13 56.995998C 13 56.995998 11 56.995998 11 54.995998L 11 12.996C 11 12.996 11 10.996 13 10.996M 37 22.996L 51 22.996M 31 30.996L 51 30.996M 31 38.996002L 51 38.996002M 31 46.995998L 45 46.995998M 18 18.996L 24 18.996C 24 18.996 25 18.996 25 19.996L 25 25.996C 25 25.996 25 26.996 24 26.996L 18 26.996C 18 26.996 17 26.996 17 25.996L 17 19.996C 17 19.996 17 18.996 18 18.996M 18 30.996L 24 30.996C 24 30.996 25 30.996 25 31.996L 25 37.996002C 25 37.996002 25 38.996002 24 38.996002L 18 38.996002C 18 38.996002 17 38.996002 17 37.996002L 17 31.996C 17 31.996 17 30.996 18 30.996M 18 42.995998L 24 42.995998C 24 42.995998 25 42.995998 25 43.995998L 25 49.995998C 25 49.995998 25 50.995998 24 50.995998L 18 50.995998C 18 50.995998 17 50.995998 17 49.995998L 17 43.995998C 17 43.995998 17 42.995998 18 42.995998"></path></g></g></g><g id="g-root-tx_evaluati_6h9nxjsa58q-stroke" data-item-order="0" transform="translate(194, 326)"></g><g id="g-root-tx_provides_1urrtiljsa5tv-stroke" data-item-order="0" transform="translate(194, 362)"></g><g id="g-root-tx_creation_1d0ht0tjs7dhg-stroke" data-item-order="0" transform="translate(194, 218)"></g><g id="g-root-ic_view_1lw4t9pjsa6mk-stroke" data-item-order="0" transform="translate(86, 446)"><g id="ic_view_1lw4t9pjsa6mk-stroke" fill="none" stroke-linecap="round" stroke-linejoin="round" stroke-miterlimit="4" stroke="#ffffff" stroke-width="2" stroke-opacity="1"><g><path d="M 28.52 45.063999L 16 45.063999C 13.790861 45.063999 12 43.27314 12 41.063999L 12 16.048C 12 13.838861 13.790861 12.048 16 12.048L 46.018002 12.048C 48.227139 12.048 50.018002 13.838861 50.018002 16.048L 50.018002 29.666M 12 19.860001L 50.02 19.860001M 12 36.468002L 28.736 36.468002M 12 28.177999L 34.021999 28.177999M 27.530001 19.860001L 27.530001 45.063999M 38.662003 19.860001L 38.662003 28.177999M 42.155998 51.632C 47.618256 51.518284 51.955372 47.000343 51.846001 41.538002C 51.955372 36.075653 47.618256 31.557716 42.155998 31.444C 36.693745 31.557716 32.356628 36.075653 32.466 41.538002C 32.356628 47.000343 36.693745 51.518284 42.155998 51.632ZM 56 55.953999L 49 48.672001"></path></g></g></g><g id="g-root-tx_analysis_1cw4kktjrp2pz-stroke" data-item-order="0" transform="translate(194, 434)"></g><g id="g-root-tx_analyzes_18gb2gdjrp3i8-stroke" data-item-order="0" transform="translate(194, 470)"></g><g id="g-root-ic_1_144usrxjs7ea6-stroke" data-item-order="0" transform="translate(86, 230)"><g id="ic_1_144usrxjs7ea6-stroke" fill="none" stroke-linecap="round" stroke-linejoin="round" stroke-miterlimit="4" stroke="#ffffff" stroke-width="2" stroke-opacity="1"><g><path d="M 32.118 30.823999C 29.44397 31.97307 27.40062 34.226593 26.518 37L 13 37C 11.895431 37 11 37.895432 11 39L 11 55C 11 56.104568 11.895431 57 13 57L 40 57C 41.104568 57 42 56.104568 42 55L 42 47.956001C 44.173504 46.330025 45.591625 43.889465 45.927998 41.195999M 45.495998 31.096001L 56.627998 14.162001C 57.065399 13.58161 57.153538 12.809624 56.858219 12.145578C 56.562897 11.481532 55.930599 11.029946 55.206661 10.966039C 54.482719 10.902131 53.78109 11.235961 53.374001 11.838L 40.856003 28M 32.620003 38.265999C 32.223152 38.432976 31.975016 38.832359 32.001114 39.262112C 32.027214 39.691864 32.321861 40.058281 32.736 40.176003C 39.514 42.125999 44.736 37.734001 45.689999 34.346001C 46.432823 31.686197 44.878803 28.927824 42.219002 28.185001C 39.559196 27.442177 36.800823 28.996197 36.057999 31.656C 35.188 34.774002 35.599998 37 32.620003 38.265999Z"></path></g></g></g><g id="g-root-ic_puzz_zko27hjrp4ax-stroke" data-item-order="0" transform="translate(86, 548)"><g id="ic_puzz_zko27hjrp4ax-stroke" fill="none" stroke-linecap="round" stroke-linejoin="round" stroke-miterlimit="4" stroke="#ffffff" stroke-width="2" stroke-opacity="1"><g><path d="M 44.200001 33.98C 42.614426 32.460838 42.513096 29.960123 43.970558 28.317654C 45.42802 26.675184 47.923035 26.478367 49.619999 27.872C 49.740227 27.978226 49.853775 28.091774 49.959999 28.212C 50.365028 28.616631 50.684082 29.098955 50.898003 29.630001C 51.027191 29.955887 51.309685 30.196419 51.652 30.271999C 51.993736 30.349892 52.351547 30.247229 52.599998 30L 55.784 26.799999C 56.166214 26.409758 56.377605 25.883574 56.371605 25.337368C 56.365601 24.791162 56.1427 24.269751 55.752003 23.888L 55.751999 23.888L 52.400002 20.557999C 53.095207 20.380379 53.729542 20.018295 54.236 19.509998C 55.816933 17.876568 55.795708 15.277086 54.188313 13.669689C 52.580914 12.062292 49.98143 12.041066 48.348 13.622C 47.839954 14.128329 47.478493 14.762781 47.301998 15.458L 43.964001 12.12C 43.169083 11.306905 41.865685 11.291686 41.051998 12.086L 41.052002 12.086L 38.087997 15.05C 37.871742 15.268255 37.765862 15.572651 37.800003 15.878C 37.834778 16.187981 38.004566 16.466818 38.264 16.639999C 39.529205 17.410116 40.27858 18.804619 40.222595 20.284716C 40.166603 21.764812 39.314022 23.098717 37.994255 23.771053C 36.674484 24.443386 35.094212 24.348862 33.863998 23.524C 33.601994 23.35815 33.360344 23.162144 33.143997 22.939999C 32.952583 22.741751 32.781715 22.524647 32.634003 22.292C 32.459511 22.0336 32.181519 21.863594 31.872 21.826C 31.566048 21.791826 31.261028 21.897663 31.042 22.113998L 28.068001 25.07C 27.270491 25.882959 27.283026 27.188505 28.096001 27.986L 39.872002 39.762001C 40.66996 40.573875 41.974594 40.586403 42.787998 39.789997L 45.972 36.599998C 46.214401 36.35453 46.315369 36.002655 46.240002 35.666C 46.164482 35.324005 45.926086 35.040771 45.601997 34.907997C 45.076584 34.696915 44.599586 34.381184 44.200001 33.98ZM 11.638 51.75C 32.638 58.75 25.638 58.75 49.638 46.75C 48.255646 44.890594 45.859528 44.091885 43.638 44.75L 35 47.484001M 11.638 40.625999L 17.638 40.625999C 22.344 40.625999 25.638 44.625999 26.638 44.625999L 33.638 44.625999C 35.638 44.625999 35.638 48.625999 33.638 48.625999L 22.638 48.625999M 18.466 40.667999C 18.466 40.667999 20.6 47.540001 11.638 47.540001M 40.393997 45.778L 42.91 50.206001M 32.914001 48.625999L 35.162003 54.273998M 26.841999 44.625999C 26.453981 45.931107 26.453981 47.3209 26.842001 48.626003"></path></g></g></g><g id="g-root-tx_applicat_1lw4wfhjrp5ai-stroke" data-item-order="0" transform="translate(194, 542)"></g><g id="g-root-tx_appliesk_1hgxve5jrp2wz-stroke" data-item-order="0" transform="translate(194, 578)"></g><g id="g-root-tx_higheror_1d0ht0tjs7dhf-stroke" data-item-order="0" transform="translate(62, 146)"></g><g id="g-root-ic_1_18lav59jrp3po-stroke" data-item-order="0" transform="translate(86, 650)"><g id="ic_1_18lav59jrp3po-stroke" fill="none" stroke-linecap="round" stroke-linejoin="round" stroke-miterlimit="4" stroke="#ffffff" stroke-width="2" stroke-opacity="1"><g><path d="M 27 33C 27.276142 33 27.5 33.223858 27.5 33.5C 27.5 33.776142 27.276142 34 27 34C 26.723858 34 26.5 33.776142 26.5 33.5C 26.499466 33.367226 26.551971 33.239738 26.645857 33.145859C 26.73974 33.051971 26.867228 32.999466 27 33M 43 46C 43.276142 46 43.5 46.223858 43.5 46.5C 43.5 46.776142 43.276142 47 43 47C 42.723858 47 42.5 46.776142 42.5 46.5C 42.5 46.223858 42.723858 46 43 46M 43 42L 43 38M 25.942001 47.346001L 12.724 53.498001L 17.9 43.166C 13.66403 39.996136 11.11989 35.055344 11 29.766001C 11 19.4 21.296 11 34 11C 46.703999 11 57 19.4 57 29.766001M 29.4 42.762001C 29.4 48.978001 35.577999 54.02 43.200001 54.02C 44.838352 54.023315 46.468121 53.783363 48.035999 53.307999L 55.966 57L 52.860001 50.799999C 55.401318 48.898746 56.927814 45.934986 57 42.762001C 57 36.543999 50.821999 31.502001 43.200001 31.502001C 35.577999 31.502001 29.4 36.543999 29.4 42.762001ZM 23 22C 22.99683 19.951126 24.542343 18.231117 26.579889 18.01593C 28.617435 17.800745 30.48815 19.159964 30.91304 21.164299C 31.337931 23.168636 30.179604 25.169968 28.23 25.799999C 27.493292 26.038002 26.99564 26.725813 27 27.5L 27 29"></path></g></g></g><g id="g-root-tx_comprehe_4pf8dpjrqih3-stroke" data-item-order="0" transform="translate(194, 638)"></g><g id="g-root-tx_explains_9lq99jrqj9c-stroke" data-item-order="0" transform="translate(194, 674)"></g><g id="g-root-tx_aisrolei_1hgbb59js7cp6-stroke" data-item-order="0" transform="translate(17, 38)"></g><g id="g-root-tx_lowerord_v3llwtjrrw1z-stroke" data-item-order="0" transform="translate(62, 884)"></g><g id="g-root-tx_memoriza_zismy5jrryfh-stroke" data-item-order="0" transform="translate(194, 746)"></g><g id="g-root-tx_reinforc_v3llwtjrrw1y-stroke" data-item-order="0" transform="translate(194, 782)"></g><g id="g-root-ic_1_1qf2rzhjrqjuy-stroke" data-item-order="0" transform="translate(80, 770)"><g id="ic_1_1qf2rzhjrqjuy-stroke" fill="none" stroke-linecap="round" stroke-linejoin="round" stroke-miterlimit="4" stroke="#ffffff" stroke-width="2" stroke-opacity="1"><g><path d="M 10 10M 44.25 45.125252L 50.5 15.87515C 51 13.62515 53 11.875153 55.5 11.875153L 66 11.875153M 10 10M 23.75 43.625252L 24.5 43.125252C 29.25 40.125252 35.5 40.375248 40.25 43.375248C 44 45.625252 48.5 46.375252 52.5 44.875252C 52.75 44.625248 53.25 44.625248 53.5 44.375252M 55 28.75C 57.761501 28.75 60 30.988575 60 33.75C 60 35.267998 59.323502 36.62825 58.255501 37.54525C 61.350998 37.917999 63.75 40.554001 63.75 43.75C 63.75 46.945999 61.350998 49.582001 58.255501 49.95475C 59.323502 50.87175 60 52.231998 60 53.75C 60 56.511501 57.761501 58.75 55 58.75C 54.517998 58.75 54.05175 58.681751 53.610748 58.554501C 53.702248 59.022251 53.75 59.505501 53.75 60C 53.75 64.14225 50.39225 67.5 46.25 67.5C 42.10775 67.5 38.75 64.14225 38.75 60C 38.75 64.14225 35.39225 67.5 31.25 67.5C 27.107876 67.5 23.75 64.14225 23.75 60C 23.75 59.505501 23.79785 59.022251 23.889175 58.554501C 23.448126 58.681751 22.982025 58.75 22.5 58.75C 19.738575 58.75 17.5 56.511501 17.5 53.75C 17.5 52.231998 18.176575 50.87175 19.244625 49.95475C 16.14905 49.582001 13.75 46.945999 13.75 43.75C 13.75 40.554001 16.14905 37.917999 19.244625 37.54525C 18.176575 36.62825 17.5 35.267998 17.5 33.75C 17.5 30.988575 19.738575 28.75 22.5 28.75C 23.136274 28.75 23.744776 28.868851 24.30455 29.08555C 23.94705 28.210775 23.75 27.253401 23.75 26.25C 23.75 22.107876 27.107876 18.75 31.25 18.75C 35.39225 18.75 38.75 22.107876 38.75 26.25C 38.75 23.473949 40.258251 21.05015 42.5 19.753376M 38.75 60L 38.75 51.25M 38.75 26.25L 38.75 32.5"></path></g></g></g></g></g><path id="wmagocdji4zd7" d="M65.283 12.757a.35.35 0 0 0 .584.157l5.203-5.141-6.183 3.523.396 1.461zm-2.216-11.7a.35.35 0 0 0-.522.305v3.111l3.276-1.868-2.754-1.548zm3.728 2.105l-4.25 2.421v2.445l6.391-3.644-2.141-1.222zm4.708 3.303a.35.35 0 0 0 0-.609l-1.592-.9-7.365 4.199v1.782a.35.35 0 0 0 .523.305l8.435-4.777z M44.542 2.513c0-.433.355-.783.792-.783s.792.35.792.783-.355.783-.792.783-.792-.35-.792-.783zm59.171 0c0-.433.355-.783.792-.783s.792.35.792.783-.355.783-.792.783-.792-.35-.792-.783zm-85.951 7.636h-1.27v-.487c-.276.201-.864.609-1.881.609-1.202 0-2.274-.794-2.137-2.078.118-1.106 1.153-1.584 1.848-1.727l2.17-.345c0-.539-.29-.956-1.064-1.006s-1.21.305-1.571 1.017l-1.124-.605c1.218-2.631 5.029-1.764 5.029.414v4.207zm-1.27-2.86c.006.396-.062 1.112-.819 1.59-.587.37-1.841.299-1.903-.395-.049-.555.461-.791.906-.898l1.816-.297zm72.662 2.86h-1.27v-.487c-.276.201-.864.609-1.881.609-1.202 0-2.274-.794-2.137-2.078.118-1.106 1.153-1.584 1.848-1.727l2.17-.345c0-.539-.29-.956-1.064-1.006s-1.21.305-1.571 1.017l-1.124-.605c1.218-2.631 5.029-1.764 5.029.414v4.207zm-1.27-2.86c.006.396-.062 1.112-.82 1.59-.587.37-1.841.299-1.903-.395-.049-.555.461-.791.906-.898l1.816-.297zM99.096 10.149H97.85v-8.45h1.246v4.895l2.68-2.559h1.738l-2.633 2.535 2.715 3.578h-1.556l-2.077-2.707-.867.844v1.863zm6.053-6.114h-1.255v6.113h1.255V4.035zm-59.2 0h-1.255v6.113h1.255V4.035zm5.584 6.113V1.697h1.255v2.695c.361-.346 1-.485 1.47-.485 1.452 0 2.477 1.082 2.457 2.448v3.792h-1.27v-3.68c0-.408-.214-1.339-1.315-1.339-.968 0-1.342.756-1.342 1.339v3.681h-1.255zm-4.76-4.894V4.039h.621a.45.45 0 0 0 .45-.45v-.855h1.251v1.305h1.309v1.215h-1.309v3.109c0 .293.105.664.648.664.365 0 .531-.035.736-.07v1.137s-.361.113-.857.113c-1.398 0-1.777-1.051-1.777-1.788V5.254h-1.071zM36.528 4.039h-1.394l2.191 6.106h1.125l1.234-3.918 1.238 3.918h1.129l2.188-6.106h-1.383l-1.359 3.93-1.256-3.93h-1.124l-1.242 3.957-1.348-3.957zM26.212 7.141c-.02 1.566 1.187 3.129 3.223 3.129 1.566 0 2.383-.918 2.734-1.719L31.172 8c-.315.399-.801 1.094-1.738 1.094-1.145 0-1.825-.781-1.891-1.52h4.625c.074-.284.148-.995-.03-1.559-.336-1.064-1.221-2.102-2.839-2.102s-3.088 1.152-3.088 3.227zm1.363-.75h3.348c-.055-.43-.566-1.301-1.623-1.301a1.79 1.79 0 0 0-1.725 1.301zm-8.758.75c.038 1.758 1.277 3.133 3.145 3.133 1.074 0 1.723-.477 1.961-.672v.547h1.242V1.703h-1.258v2.888c-.414-.36-1.062-.68-1.93-.68-1.91 0-3.198 1.473-3.16 3.23zm1.309-.08c0 1.119.723 1.978 1.836 1.978a1.88 1.88 0 0 0 1.94-1.904c0-1.371-1.011-1.99-1.972-1.99s-1.805.798-1.805 1.916zm76.683-.028C96.771 5.275 95.532 3.9 93.664 3.9c-1.074 0-1.723.477-1.961.672v-.547h-1.242v8.22h1.258V9.583c.414.36 1.063.68 1.93.68 1.91 0 3.198-1.473 3.16-3.23zm-1.309.08c0-1.119-.723-1.978-1.836-1.978a1.88 1.88 0 0 0-1.94 1.904c0 1.371 1.011 1.99 1.972 1.99S95.5 8.231 95.5 7.113zM106.441 10.173V4.036h1.254v.382c.361-.346 1-.485 1.47-.485 1.452 0 2.477 1.082 2.457 2.448v3.792h-1.27V6.492c0-.408-.214-1.339-1.315-1.339-.969 0-1.342.756-1.342 1.339v3.681h-1.254zm-30.383-.021V1.824h1.084l4.215 5.777V1.824h1.32v8.328h-1.094l-4.207-5.796v5.796h-1.319zM5.24 10.149H4V2.377h1.014l2.664 3.597 2.654-3.592h1.03v7.766h-1.256V4.762L7.678 8.068 5.24 4.742v5.407z" transform="translate(434, 956)" fill="#80808088" stroke="none"></path></svg>