<?xml version="1.0" encoding="UTF-8"?>
<svg xmlns="http://www.w3.org/2000/svg" viewBox="0 0 64 64" width="64" height="64" role="img" aria-label="Pencil icon">
  <title>Pencil icon</title>
  <rect width="64" height="64" rx="12" fill="#0b76d1"/>
  <g transform="translate(8,8)">
    <!-- pencil body -->
    <path d="M35.5 4.1c1.1-1.1 2.9-1.1 4 0l6.4 6.4c1.1 1.1 1.1 2.9 0 4L21.9 38.6 10 41.8l3.2-11.9L35.5 4.1z" fill="#fff"/>
    <!-- tip -->
    <path d="M41.9 10.5l-6.4-6.4 3.6-3.6c1.1-1.1 2.9-1.1 4 0l2.8 2.8c1.1 1.1 1.1 2.9 0 4l-4 3.2z" fill="#ffd166"/>
    <!-- lead -->
    <path d="M44.3 7.1l-2.8-2.8-3.6 3.6 2.8 2.8c0.3 0.3 0.8 0.3 1.1 0l2.5-2.5c0.3-0.3 0.3-0.8 0-1.1z" fill="#6b6b6b"/>
    <!-- shadow on body -->
    <path d="M21.9 38.6L45.9 14.6 34.3 3 10.3 27.1 21.9 38.6z" fill="#e6eef9" opacity="0.18"/>
  </g>
</svg>
